<?xml version="1.0" encoding="UTF-8"?>
<mxfile host="app.diagrams.net" modified="2021-05-14T06:58:41.723Z" agent="5.0 (Windows NT 10.0; Win64; x64) AppleWebKit/537.36 (KHTML, like Gecko) Chrome/86.0.4240.272 Whale/2.9.117.22 Safari/537.36" etag="H95cgZM7h1ZtY4JwK-di" version="14.6.13" type="google">
  <diagram id="kgpKYQtTHZ0yAKxKKP6v" name="Page-1">
    <mxGraphModel dx="1550" dy="783" grid="1" gridSize="10" guides="1" tooltips="1" connect="1" arrows="1" fold="1" page="1" pageScale="1" pageWidth="850" pageHeight="1100" math="0" shadow="0">
      <root>
        <mxCell id="0" />
        <mxCell id="1" parent="0" />
        <mxCell id="9bp0-L5Z77JWMn4fwnEU-1" value="alt" style="shape=umlFrame;whiteSpace=wrap;html=1;" vertex="1" parent="1">
          <mxGeometry x="234" y="198" width="810" height="305" as="geometry" />
        </mxCell>
        <mxCell id="pdsTgOcyTpb8ftyWchA--1" value="View Controller" style="shape=umlLifeline;perimeter=lifelinePerimeter;container=1;collapsible=0;recursiveResize=0;rounded=0;shadow=0;strokeWidth=1;" parent="1" vertex="1">
          <mxGeometry x="120" y="80" width="100" height="300" as="geometry" />
        </mxCell>
        <mxCell id="pdsTgOcyTpb8ftyWchA--3" value="Click View&#xa;E-book button" style="verticalAlign=bottom;startArrow=oval;endArrow=block;startSize=8;shadow=0;strokeWidth=1;" parent="pdsTgOcyTpb8ftyWchA--1" target="wKewPHEJFiD_fcM_LAi2-2" edge="1">
          <mxGeometry relative="1" as="geometry">
            <mxPoint x="-440" y="70" as="sourcePoint" />
            <mxPoint x="-320" y="70" as="targetPoint" />
          </mxGeometry>
        </mxCell>
        <mxCell id="pdsTgOcyTpb8ftyWchA--4" value="" style="points=[];perimeter=orthogonalPerimeter;rounded=0;shadow=0;strokeWidth=1;" parent="pdsTgOcyTpb8ftyWchA--1" vertex="1">
          <mxGeometry x="45" y="160" width="10" height="80" as="geometry" />
        </mxCell>
        <mxCell id="pdsTgOcyTpb8ftyWchA--8" value=":Controller" style="shape=umlLifeline;perimeter=lifelinePerimeter;container=1;collapsible=0;recursiveResize=0;rounded=0;shadow=0;strokeWidth=1;" parent="1" vertex="1">
          <mxGeometry x="310" y="80" width="100" height="420" as="geometry" />
        </mxCell>
        <mxCell id="pdsTgOcyTpb8ftyWchA--9" value="" style="points=[];perimeter=orthogonalPerimeter;rounded=0;shadow=0;strokeWidth=1;" parent="pdsTgOcyTpb8ftyWchA--8" vertex="1">
          <mxGeometry x="45" y="80" width="10" height="100" as="geometry" />
        </mxCell>
        <mxCell id="pdsTgOcyTpb8ftyWchA--10" value="return EbookContent" style="verticalAlign=bottom;endArrow=open;dashed=1;endSize=8;shadow=0;strokeWidth=1;exitX=0;exitY=0.896;exitDx=0;exitDy=0;exitPerimeter=0;" parent="1" source="pdsTgOcyTpb8ftyWchA--9" target="pdsTgOcyTpb8ftyWchA--4" edge="1">
          <mxGeometry relative="1" as="geometry">
            <mxPoint x="180" y="250" as="targetPoint" />
            <mxPoint x="460" y="250" as="sourcePoint" />
          </mxGeometry>
        </mxCell>
        <mxCell id="pdsTgOcyTpb8ftyWchA--11" value="Content:get(queryRequest: string)" style="verticalAlign=bottom;endArrow=block;entryX=0;entryY=0;shadow=0;strokeWidth=1;" parent="1" source="wKewPHEJFiD_fcM_LAi2-2" target="pdsTgOcyTpb8ftyWchA--9" edge="1">
          <mxGeometry relative="1" as="geometry">
            <mxPoint x="275" y="160" as="sourcePoint" />
          </mxGeometry>
        </mxCell>
        <mxCell id="pdsTgOcyTpb8ftyWchA--12" value="Guest" style="shape=umlActor;verticalLabelPosition=bottom;verticalAlign=top;html=1;outlineConnect=0;" parent="1" vertex="1">
          <mxGeometry x="-335" y="60" width="30" height="60" as="geometry" />
        </mxCell>
        <mxCell id="pdsTgOcyTpb8ftyWchA--13" value=":Database&#xa;Connection" style="shape=umlLifeline;perimeter=lifelinePerimeter;container=1;collapsible=0;recursiveResize=0;rounded=0;shadow=0;strokeWidth=1;" parent="1" vertex="1">
          <mxGeometry x="760" y="80" width="100" height="420" as="geometry" />
        </mxCell>
        <mxCell id="pdsTgOcyTpb8ftyWchA--14" value="" style="points=[];perimeter=orthogonalPerimeter;rounded=0;shadow=0;strokeWidth=1;" parent="pdsTgOcyTpb8ftyWchA--13" vertex="1">
          <mxGeometry x="45" y="136" width="10" height="60" as="geometry" />
        </mxCell>
        <mxCell id="pdsTgOcyTpb8ftyWchA--15" value="Database" style="shape=umlActor;verticalLabelPosition=bottom;verticalAlign=top;html=1;outlineConnect=0;" parent="1" vertex="1">
          <mxGeometry x="950" y="100" width="30" height="60" as="geometry" />
        </mxCell>
        <mxCell id="pdsTgOcyTpb8ftyWchA--16" value="EbookContent:=find(params:Long)" style="verticalAlign=bottom;endArrow=block;shadow=0;strokeWidth=1;entryX=-0.1;entryY=0.093;entryDx=0;entryDy=0;entryPerimeter=0;" parent="1" target="HuapAEvaDvoRg8MmGfr3-4" edge="1">
          <mxGeometry relative="1" as="geometry">
            <mxPoint x="365" y="216" as="sourcePoint" />
            <mxPoint x="634" y="215" as="targetPoint" />
          </mxGeometry>
        </mxCell>
        <mxCell id="pdsTgOcyTpb8ftyWchA--17" value="" style="endArrow=none;dashed=1;html=1;startArrow=none;" parent="1" source="HuapAEvaDvoRg8MmGfr3-1" edge="1">
          <mxGeometry width="50" height="50" relative="1" as="geometry">
            <mxPoint x="964.5799999999999" y="380" as="sourcePoint" />
            <mxPoint x="964.5799999999999" y="180" as="targetPoint" />
          </mxGeometry>
        </mxCell>
        <mxCell id="pdsTgOcyTpb8ftyWchA--18" value="" style="endArrow=none;dashed=1;html=1;" parent="1" edge="1">
          <mxGeometry width="50" height="50" relative="1" as="geometry">
            <mxPoint x="-320.4200000000003" y="380" as="sourcePoint" />
            <mxPoint x="-321" y="150" as="targetPoint" />
          </mxGeometry>
        </mxCell>
        <mxCell id="pdsTgOcyTpb8ftyWchA--19" value="retrieve content" style="verticalAlign=bottom;endArrow=block;shadow=0;strokeWidth=1;entryX=-0.2;entryY=0.225;entryDx=0;entryDy=0;entryPerimeter=0;" parent="1" edge="1">
          <mxGeometry relative="1" as="geometry">
            <mxPoint x="815" y="233" as="sourcePoint" />
            <mxPoint x="959" y="233" as="targetPoint" />
          </mxGeometry>
        </mxCell>
        <mxCell id="pdsTgOcyTpb8ftyWchA--20" value="return record" style="verticalAlign=bottom;endArrow=open;dashed=1;endSize=8;shadow=0;strokeWidth=1;entryX=1;entryY=0.667;entryDx=0;entryDy=0;entryPerimeter=0;exitX=0.2;exitY=0.76;exitDx=0;exitDy=0;exitPerimeter=0;" parent="1" source="HuapAEvaDvoRg8MmGfr3-1" edge="1">
          <mxGeometry relative="1" as="geometry">
            <mxPoint x="815" y="254.01999999999998" as="targetPoint" />
            <mxPoint x="965" y="264" as="sourcePoint" />
          </mxGeometry>
        </mxCell>
        <mxCell id="snwnYTdJGUyey9fKNiiB-1" value="" style="shape=callout;whiteSpace=wrap;html=1;perimeter=calloutPerimeter;rotation=-180;" parent="1" vertex="1">
          <mxGeometry x="100" y="610" width="920" height="390" as="geometry" />
        </mxCell>
        <mxCell id="snwnYTdJGUyey9fKNiiB-2" value="Database" style="shape=umlActor;verticalLabelPosition=bottom;verticalAlign=top;html=1;outlineConnect=0;" parent="1" vertex="1">
          <mxGeometry x="950" y="640" width="30" height="60" as="geometry" />
        </mxCell>
        <mxCell id="snwnYTdJGUyey9fKNiiB-3" value="" style="endArrow=none;dashed=1;html=1;startArrow=none;" parent="1" source="snwnYTdJGUyey9fKNiiB-5" edge="1">
          <mxGeometry width="50" height="50" relative="1" as="geometry">
            <mxPoint x="965" y="1000" as="sourcePoint" />
            <mxPoint x="964.8000000000002" y="720" as="targetPoint" />
          </mxGeometry>
        </mxCell>
        <mxCell id="snwnYTdJGUyey9fKNiiB-4" value="find(params: :Long)" style="verticalAlign=bottom;endArrow=block;shadow=0;strokeWidth=1;entryX=0.1;entryY=0.195;entryDx=0;entryDy=0;entryPerimeter=0;" parent="1" source="snwnYTdJGUyey9fKNiiB-13" target="HuapAEvaDvoRg8MmGfr3-8" edge="1">
          <mxGeometry relative="1" as="geometry">
            <mxPoint x="516" y="800.0250000000001" as="sourcePoint" />
            <mxPoint x="665" y="800.0250000000001" as="targetPoint" />
            <Array as="points" />
          </mxGeometry>
        </mxCell>
        <mxCell id="snwnYTdJGUyey9fKNiiB-5" value="" style="points=[];perimeter=orthogonalPerimeter;rounded=0;shadow=0;strokeWidth=1;" parent="1" vertex="1">
          <mxGeometry x="960" y="810" width="10" height="50" as="geometry" />
        </mxCell>
        <mxCell id="snwnYTdJGUyey9fKNiiB-6" value="" style="endArrow=none;dashed=1;html=1;startArrow=none;" parent="1" target="snwnYTdJGUyey9fKNiiB-5" edge="1">
          <mxGeometry width="50" height="50" relative="1" as="geometry">
            <mxPoint x="965" y="1000" as="sourcePoint" />
            <mxPoint x="964.8000000000002" y="720" as="targetPoint" />
          </mxGeometry>
        </mxCell>
        <mxCell id="snwnYTdJGUyey9fKNiiB-7" value="Retrive&#xa;Records" style="verticalAlign=bottom;endArrow=block;shadow=0;strokeWidth=1;" parent="1" edge="1">
          <mxGeometry relative="1" as="geometry">
            <mxPoint x="836" y="819" as="sourcePoint" />
            <mxPoint x="960" y="819" as="targetPoint" />
            <Array as="points" />
          </mxGeometry>
        </mxCell>
        <mxCell id="snwnYTdJGUyey9fKNiiB-8" value="return&#xa;Records" style="verticalAlign=bottom;endArrow=open;dashed=1;endSize=8;exitX=-0.026;exitY=1.002;shadow=0;strokeWidth=1;exitDx=0;exitDy=0;exitPerimeter=0;" parent="1" edge="1">
          <mxGeometry relative="1" as="geometry">
            <mxPoint x="833.9999999999998" y="851" as="targetPoint" />
            <mxPoint x="960" y="850.06" as="sourcePoint" />
          </mxGeometry>
        </mxCell>
        <mxCell id="snwnYTdJGUyey9fKNiiB-9" value="set(EbookContent: content:string)" style="verticalAlign=bottom;endArrow=block;shadow=0;strokeWidth=1;entryX=1;entryY=0.175;entryDx=0;entryDy=0;entryPerimeter=0;" parent="1" target="snwnYTdJGUyey9fKNiiB-19" edge="1">
          <mxGeometry relative="1" as="geometry">
            <mxPoint x="673.9999999999998" y="862" as="sourcePoint" />
            <mxPoint x="385" y="863.04" as="targetPoint" />
            <Array as="points" />
          </mxGeometry>
        </mxCell>
        <mxCell id="snwnYTdJGUyey9fKNiiB-10" value="" style="ellipse;whiteSpace=wrap;html=1;aspect=fixed;" parent="1" vertex="1">
          <mxGeometry x="100" y="620" width="40" height="40" as="geometry" />
        </mxCell>
        <mxCell id="snwnYTdJGUyey9fKNiiB-11" value="&lt;b&gt;V1&lt;/b&gt;" style="text;html=1;strokeColor=none;fillColor=none;align=center;verticalAlign=middle;whiteSpace=wrap;rounded=0;" parent="1" vertex="1">
          <mxGeometry x="100" y="630" width="40" height="20" as="geometry" />
        </mxCell>
        <mxCell id="snwnYTdJGUyey9fKNiiB-12" value="Controller" style="shape=umlLifeline;perimeter=lifelinePerimeter;container=1;collapsible=0;recursiveResize=0;rounded=0;shadow=0;strokeWidth=1;" parent="1" vertex="1">
          <mxGeometry x="265" y="640" width="100" height="360" as="geometry" />
        </mxCell>
        <mxCell id="snwnYTdJGUyey9fKNiiB-13" value="" style="points=[];perimeter=orthogonalPerimeter;rounded=0;shadow=0;strokeWidth=1;" parent="snwnYTdJGUyey9fKNiiB-12" vertex="1">
          <mxGeometry x="45" y="80" width="10" height="90" as="geometry" />
        </mxCell>
        <mxCell id="snwnYTdJGUyey9fKNiiB-14" value="Database&#xa;Connection" style="shape=umlLifeline;perimeter=lifelinePerimeter;container=1;collapsible=0;recursiveResize=0;rounded=0;shadow=0;strokeWidth=1;" parent="1" vertex="1">
          <mxGeometry x="780" y="640" width="100" height="360" as="geometry" />
        </mxCell>
        <mxCell id="snwnYTdJGUyey9fKNiiB-15" value="" style="points=[];perimeter=orthogonalPerimeter;rounded=0;shadow=0;strokeWidth=1;" parent="snwnYTdJGUyey9fKNiiB-14" vertex="1">
          <mxGeometry x="45" y="150" width="10" height="80" as="geometry" />
        </mxCell>
        <mxCell id="snwnYTdJGUyey9fKNiiB-16" value="View Controller" style="shape=umlLifeline;perimeter=lifelinePerimeter;container=1;collapsible=0;recursiveResize=0;rounded=0;shadow=0;strokeWidth=1;" parent="1" vertex="1">
          <mxGeometry x="135" y="640" width="100" height="360" as="geometry" />
        </mxCell>
        <mxCell id="snwnYTdJGUyey9fKNiiB-17" value="" style="points=[];perimeter=orthogonalPerimeter;rounded=0;shadow=0;strokeWidth=1;" parent="snwnYTdJGUyey9fKNiiB-16" vertex="1">
          <mxGeometry x="45" y="70" width="10" height="80" as="geometry" />
        </mxCell>
        <mxCell id="snwnYTdJGUyey9fKNiiB-18" value="Click Tap" style="verticalAlign=bottom;startArrow=oval;endArrow=block;startSize=8;shadow=0;strokeWidth=1;" parent="snwnYTdJGUyey9fKNiiB-16" target="snwnYTdJGUyey9fKNiiB-17" edge="1">
          <mxGeometry relative="1" as="geometry">
            <mxPoint x="-15" y="70" as="sourcePoint" />
          </mxGeometry>
        </mxCell>
        <mxCell id="snwnYTdJGUyey9fKNiiB-19" value="" style="points=[];perimeter=orthogonalPerimeter;rounded=0;shadow=0;strokeWidth=1;" parent="snwnYTdJGUyey9fKNiiB-16" vertex="1">
          <mxGeometry x="45" y="210" width="10" height="80" as="geometry" />
        </mxCell>
        <mxCell id="snwnYTdJGUyey9fKNiiB-20" value="" style="points=[];perimeter=orthogonalPerimeter;rounded=0;shadow=0;strokeWidth=1;" parent="snwnYTdJGUyey9fKNiiB-16" vertex="1">
          <mxGeometry x="55" y="250" width="10" height="20" as="geometry" />
        </mxCell>
        <mxCell id="snwnYTdJGUyey9fKNiiB-21" value="" style="verticalAlign=bottom;endArrow=block;shadow=0;strokeWidth=1;rounded=0;entryX=1;entryY=0.464;entryDx=0;entryDy=0;entryPerimeter=0;" parent="snwnYTdJGUyey9fKNiiB-16" target="snwnYTdJGUyey9fKNiiB-20" edge="1">
          <mxGeometry relative="1" as="geometry">
            <mxPoint x="56" y="240" as="sourcePoint" />
            <mxPoint x="110" y="260" as="targetPoint" />
            <Array as="points">
              <mxPoint x="110" y="240" />
              <mxPoint x="110" y="259" />
            </Array>
          </mxGeometry>
        </mxCell>
        <mxCell id="snwnYTdJGUyey9fKNiiB-22" value="render EbookContent" style="edgeLabel;html=1;align=center;verticalAlign=middle;resizable=0;points=[];" parent="snwnYTdJGUyey9fKNiiB-21" vertex="1" connectable="0">
          <mxGeometry x="-0.2215" y="1" relative="1" as="geometry">
            <mxPoint as="offset" />
          </mxGeometry>
        </mxCell>
        <mxCell id="snwnYTdJGUyey9fKNiiB-23" value="get(queryRequest: string)" style="verticalAlign=bottom;endArrow=block;shadow=0;strokeWidth=1;exitX=1.083;exitY=0.871;exitDx=0;exitDy=0;exitPerimeter=0;" parent="1" edge="1">
          <mxGeometry relative="1" as="geometry">
            <mxPoint x="190.83000000000004" y="733.6800000000001" as="sourcePoint" />
            <mxPoint x="315" y="734" as="targetPoint" />
          </mxGeometry>
        </mxCell>
        <mxCell id="HuapAEvaDvoRg8MmGfr3-1" value="" style="points=[];perimeter=orthogonalPerimeter;rounded=0;shadow=0;strokeWidth=1;" parent="1" vertex="1">
          <mxGeometry x="960" y="224" width="10" height="40" as="geometry" />
        </mxCell>
        <mxCell id="HuapAEvaDvoRg8MmGfr3-2" value="" style="endArrow=none;dashed=1;html=1;exitX=0.898;exitY=1;exitDx=0;exitDy=0;exitPerimeter=0;" parent="1" target="HuapAEvaDvoRg8MmGfr3-1" edge="1" source="9bp0-L5Z77JWMn4fwnEU-1">
          <mxGeometry width="50" height="50" relative="1" as="geometry">
            <mxPoint x="965" y="370" as="sourcePoint" />
            <mxPoint x="964.5799999999999" y="180" as="targetPoint" />
          </mxGeometry>
        </mxCell>
        <mxCell id="HuapAEvaDvoRg8MmGfr3-3" value="Service" style="shape=umlLifeline;perimeter=lifelinePerimeter;container=1;collapsible=0;recursiveResize=0;rounded=0;shadow=0;strokeWidth=1;" parent="1" vertex="1">
          <mxGeometry x="590" y="80" width="100" height="420" as="geometry" />
        </mxCell>
        <mxCell id="HuapAEvaDvoRg8MmGfr3-4" value="" style="points=[];perimeter=orthogonalPerimeter;rounded=0;shadow=0;strokeWidth=1;" parent="HuapAEvaDvoRg8MmGfr3-3" vertex="1">
          <mxGeometry x="45" y="129" width="10" height="75" as="geometry" />
        </mxCell>
        <mxCell id="HuapAEvaDvoRg8MmGfr3-5" value="find(params:Long)" style="verticalAlign=bottom;endArrow=block;entryX=0;entryY=0;shadow=0;strokeWidth=1;" parent="1" edge="1">
          <mxGeometry relative="1" as="geometry">
            <mxPoint x="645" y="224" as="sourcePoint" />
            <mxPoint x="806" y="224.0000000000001" as="targetPoint" />
          </mxGeometry>
        </mxCell>
        <mxCell id="HuapAEvaDvoRg8MmGfr3-6" value="return content" style="verticalAlign=bottom;endArrow=open;dashed=1;endSize=8;shadow=0;strokeWidth=1;" parent="1" edge="1">
          <mxGeometry relative="1" as="geometry">
            <mxPoint x="644.5" y="264" as="targetPoint" />
            <mxPoint x="805" y="264" as="sourcePoint" />
          </mxGeometry>
        </mxCell>
        <mxCell id="HuapAEvaDvoRg8MmGfr3-7" value="Service" style="shape=umlLifeline;perimeter=lifelinePerimeter;container=1;collapsible=0;recursiveResize=0;rounded=0;shadow=0;strokeWidth=1;" parent="1" vertex="1">
          <mxGeometry x="620" y="640" width="100" height="360" as="geometry" />
        </mxCell>
        <mxCell id="HuapAEvaDvoRg8MmGfr3-8" value="" style="points=[];perimeter=orthogonalPerimeter;rounded=0;shadow=0;strokeWidth=1;" parent="HuapAEvaDvoRg8MmGfr3-7" vertex="1">
          <mxGeometry x="45" y="143" width="10" height="87" as="geometry" />
        </mxCell>
        <mxCell id="HuapAEvaDvoRg8MmGfr3-9" value="find(params: Long)" style="verticalAlign=bottom;endArrow=block;shadow=0;strokeWidth=1;entryX=-0.1;entryY=0.227;entryDx=0;entryDy=0;entryPerimeter=0;exitX=1.2;exitY=0.373;exitDx=0;exitDy=0;exitPerimeter=0;" parent="1" edge="1">
          <mxGeometry relative="1" as="geometry">
            <mxPoint x="675" y="808.9749999999999" as="sourcePoint" />
            <mxPoint x="826" y="807.9950000000001" as="targetPoint" />
            <Array as="points" />
          </mxGeometry>
        </mxCell>
        <mxCell id="HuapAEvaDvoRg8MmGfr3-10" value="return content" style="verticalAlign=bottom;endArrow=open;dashed=1;endSize=8;shadow=0;strokeWidth=1;entryX=1.1;entryY=0.839;entryDx=0;entryDy=0;entryPerimeter=0;" parent="1" edge="1">
          <mxGeometry relative="1" as="geometry">
            <mxPoint x="675" y="855.9929999999999" as="targetPoint" />
            <mxPoint x="823" y="856" as="sourcePoint" />
          </mxGeometry>
        </mxCell>
        <mxCell id="HuapAEvaDvoRg8MmGfr3-11" value="Authentication&#xa;Checker" style="shape=umlLifeline;perimeter=lifelinePerimeter;container=1;collapsible=0;recursiveResize=0;rounded=0;shadow=0;strokeWidth=1;" parent="1" vertex="1">
          <mxGeometry x="445" y="80" width="100" height="420" as="geometry" />
        </mxCell>
        <mxCell id="HuapAEvaDvoRg8MmGfr3-12" value="" style="points=[];perimeter=orthogonalPerimeter;rounded=0;shadow=0;strokeWidth=1;" parent="HuapAEvaDvoRg8MmGfr3-11" vertex="1">
          <mxGeometry x="45" y="90" width="10" height="20" as="geometry" />
        </mxCell>
        <mxCell id="HuapAEvaDvoRg8MmGfr3-13" value="Auth := Authenticate()" style="verticalAlign=bottom;endArrow=block;shadow=0;strokeWidth=1;" parent="1" edge="1">
          <mxGeometry x="-0.0669" relative="1" as="geometry">
            <mxPoint x="364.5" y="170" as="sourcePoint" />
            <mxPoint x="498" y="170" as="targetPoint" />
            <Array as="points" />
            <mxPoint as="offset" />
          </mxGeometry>
        </mxCell>
        <mxCell id="HuapAEvaDvoRg8MmGfr3-14" value="return Auth" style="verticalAlign=bottom;endArrow=open;dashed=1;endSize=8;shadow=0;strokeWidth=1;exitX=0.083;exitY=0.931;exitDx=0;exitDy=0;exitPerimeter=0;" parent="1" edge="1">
          <mxGeometry relative="1" as="geometry">
            <mxPoint x="364.5" y="190.35000000000014" as="targetPoint" />
            <mxPoint x="495.8299999999999" y="190.35000000000014" as="sourcePoint" />
          </mxGeometry>
        </mxCell>
        <mxCell id="HuapAEvaDvoRg8MmGfr3-15" value="Authentication&#xa;Checker" style="shape=umlLifeline;perimeter=lifelinePerimeter;container=1;collapsible=0;recursiveResize=0;rounded=0;shadow=0;strokeWidth=1;" parent="1" vertex="1">
          <mxGeometry x="425" y="640" width="100" height="360" as="geometry" />
        </mxCell>
        <mxCell id="HuapAEvaDvoRg8MmGfr3-16" value="" style="points=[];perimeter=orthogonalPerimeter;rounded=0;shadow=0;strokeWidth=1;" parent="HuapAEvaDvoRg8MmGfr3-15" vertex="1">
          <mxGeometry x="45" y="100" width="10" height="30" as="geometry" />
        </mxCell>
        <mxCell id="HuapAEvaDvoRg8MmGfr3-17" value="Auth := Authenticate()" style="verticalAlign=bottom;endArrow=block;shadow=0;strokeWidth=1;" parent="1" edge="1">
          <mxGeometry x="-0.0669" relative="1" as="geometry">
            <mxPoint x="320" y="747" as="sourcePoint" />
            <mxPoint x="471" y="747" as="targetPoint" />
            <Array as="points" />
            <mxPoint as="offset" />
          </mxGeometry>
        </mxCell>
        <mxCell id="HuapAEvaDvoRg8MmGfr3-18" value="return Auth" style="verticalAlign=bottom;endArrow=open;dashed=1;endSize=8;shadow=0;strokeWidth=1;entryX=1;entryY=0.5;entryDx=0;entryDy=0;entryPerimeter=0;" parent="1" edge="1">
          <mxGeometry relative="1" as="geometry">
            <mxPoint x="319" y="765" as="targetPoint" />
            <mxPoint x="470" y="765" as="sourcePoint" />
          </mxGeometry>
        </mxCell>
        <mxCell id="wKewPHEJFiD_fcM_LAi2-1" value="Issue Info&#xa;Page View" style="shape=umlLifeline;perimeter=lifelinePerimeter;container=1;collapsible=0;recursiveResize=0;rounded=0;shadow=0;strokeWidth=1;" parent="1" vertex="1">
          <mxGeometry x="-240" y="80" width="100" height="310" as="geometry" />
        </mxCell>
        <mxCell id="wKewPHEJFiD_fcM_LAi2-2" value="" style="points=[];perimeter=orthogonalPerimeter;rounded=0;shadow=0;strokeWidth=1;" parent="wKewPHEJFiD_fcM_LAi2-1" vertex="1">
          <mxGeometry x="45" y="69" width="10" height="121" as="geometry" />
        </mxCell>
        <mxCell id="wKewPHEJFiD_fcM_LAi2-3" value="E-book Viewer&#xa;Page View" style="shape=umlLifeline;perimeter=lifelinePerimeter;container=1;collapsible=0;recursiveResize=0;rounded=0;shadow=0;strokeWidth=1;" parent="1" vertex="1">
          <mxGeometry x="-60" y="80" width="100" height="310" as="geometry" />
        </mxCell>
        <mxCell id="wKewPHEJFiD_fcM_LAi2-4" value="" style="points=[];perimeter=orthogonalPerimeter;rounded=0;shadow=0;strokeWidth=1;" parent="wKewPHEJFiD_fcM_LAi2-3" vertex="1">
          <mxGeometry x="45" y="190" width="10" height="50" as="geometry" />
        </mxCell>
        <mxCell id="pdsTgOcyTpb8ftyWchA--21" value="result displayed" style="verticalAlign=bottom;endArrow=open;dashed=1;endSize=8;shadow=0;strokeWidth=1;" parent="1" source="wKewPHEJFiD_fcM_LAi2-4" edge="1">
          <mxGeometry relative="1" as="geometry">
            <mxPoint x="-320" y="313" as="targetPoint" />
            <mxPoint x="170.83000000000004" y="302" as="sourcePoint" />
          </mxGeometry>
        </mxCell>
        <mxCell id="wKewPHEJFiD_fcM_LAi2-5" value="render(EbookContent)" style="verticalAlign=bottom;endArrow=block;shadow=0;strokeWidth=1;exitX=-0.043;exitY=0.425;exitDx=0;exitDy=0;exitPerimeter=0;" parent="1" source="pdsTgOcyTpb8ftyWchA--4" target="wKewPHEJFiD_fcM_LAi2-4" edge="1">
          <mxGeometry x="-0.0373" relative="1" as="geometry">
            <mxPoint x="165" y="312.7399999999998" as="sourcePoint" />
            <mxPoint y="312" as="targetPoint" />
            <Array as="points" />
            <mxPoint as="offset" />
          </mxGeometry>
        </mxCell>
        <mxCell id="9bp0-L5Z77JWMn4fwnEU-2" value="&lt;b&gt;Auth:true&lt;/b&gt;" style="text;html=1;strokeColor=none;fillColor=none;align=center;verticalAlign=middle;whiteSpace=wrap;rounded=0;" vertex="1" parent="1">
          <mxGeometry x="304" y="203" width="40" height="20" as="geometry" />
        </mxCell>
        <mxCell id="9bp0-L5Z77JWMn4fwnEU-3" value="" style="endArrow=none;dashed=1;html=1;strokeWidth=3;" edge="1" parent="1">
          <mxGeometry width="50" height="50" relative="1" as="geometry">
            <mxPoint x="234" y="322" as="sourcePoint" />
            <mxPoint x="1044" y="322" as="targetPoint" />
          </mxGeometry>
        </mxCell>
        <mxCell id="9bp0-L5Z77JWMn4fwnEU-4" value="&lt;b&gt;[else]&lt;/b&gt;" style="text;html=1;strokeColor=none;fillColor=none;align=center;verticalAlign=middle;whiteSpace=wrap;rounded=0;" vertex="1" parent="1">
          <mxGeometry x="250" y="340.5" width="40" height="20" as="geometry" />
        </mxCell>
        <mxCell id="9bp0-L5Z77JWMn4fwnEU-5" value="alt" style="shape=umlFrame;whiteSpace=wrap;html=1;" vertex="1" parent="1">
          <mxGeometry x="194" y="773" width="810" height="305" as="geometry" />
        </mxCell>
        <mxCell id="9bp0-L5Z77JWMn4fwnEU-6" value="&lt;b&gt;Auth:true&lt;/b&gt;" style="text;html=1;strokeColor=none;fillColor=none;align=center;verticalAlign=middle;whiteSpace=wrap;rounded=0;" vertex="1" parent="1">
          <mxGeometry x="264" y="778" width="40" height="20" as="geometry" />
        </mxCell>
        <mxCell id="9bp0-L5Z77JWMn4fwnEU-7" value="" style="endArrow=none;dashed=1;html=1;strokeWidth=3;" edge="1" parent="1">
          <mxGeometry width="50" height="50" relative="1" as="geometry">
            <mxPoint x="194" y="928" as="sourcePoint" />
            <mxPoint x="1004" y="928" as="targetPoint" />
          </mxGeometry>
        </mxCell>
        <mxCell id="9bp0-L5Z77JWMn4fwnEU-8" value="&lt;b&gt;[else]&lt;/b&gt;" style="text;html=1;strokeColor=none;fillColor=none;align=center;verticalAlign=middle;whiteSpace=wrap;rounded=0;" vertex="1" parent="1">
          <mxGeometry x="204" y="938" width="40" height="20" as="geometry" />
        </mxCell>
      </root>
    </mxGraphModel>
  </diagram>
</mxfile>
